<svg width="600" height="400" xmlns="http://www.w3.org/2000/svg">
  <defs>
    <linearGradient id="grad3" x1="0%" y1="0%" x2="100%" y2="100%">
      <stop offset="0%" style="stop-color:#0ea5e9;stop-opacity:0.8" />
      <stop offset="100%" style="stop-color:#10b981;stop-opacity:0.6" />
    </linearGradient>
  </defs>

  <rect width="100%" height="100%" fill="url(#grad3)"/>

  <!-- Weather Dashboard -->
  <rect x="50" y="50" width="500" height="80" rx="8" fill="white" opacity="0.9"/>

  <!-- Weather Cards -->
  <rect x="50" y="150" width="110" height="120" rx="8" fill="white" opacity="0.9"/>
  <rect x="180" y="150" width="110" height="120" rx="8" fill="white" opacity="0.9"/>
  <rect x="310" y="150" width="110" height="120" rx="8" fill="white" opacity="0.9"/>
  <rect x="440" y="150" width="110" height="120" rx="8" fill="white" opacity="0.9"/>

  <!-- Chart Area -->
  <rect x="50" y="290" width="500" height="80" rx="8" fill="white" opacity="0.8"/>

  <!-- Weather Icons Placeholder -->
  <circle cx="105" cy="210" r="15" fill="#0ea5e9" opacity="0.7"/>
  <circle cx="235" cy="210" r="15" fill="#f59e0b" opacity="0.7"/>
  <circle cx="365" cy="210" r="15" fill="#6b7280" opacity="0.7"/>
  <circle cx="495" cy="210" r="15" fill="#10b981" opacity="0.7"/>

  <!-- Chart Lines -->
  <polyline points="70,320 150,310 250,300 350,305 450,295 530,290" stroke="#0ea5e9" stroke-width="3" fill="none"/>
  <polyline points="70,340 150,330 250,335 350,325 450,330 530,320" stroke="#10b981" stroke-width="3" fill="none"/>

  <text x="300" y="200" text-anchor="middle" fill="white" font-family="Arial, sans-serif" font-size="24" font-weight="bold">Weather Analytics</text>
  <text x="300" y="230" text-anchor="middle" fill="white" font-family="Arial, sans-serif" font-size="14" opacity="0.9">Real-time Data & Predictions</text>
</svg>