<svg width="600" height="400" xmlns="http://www.w3.org/2000/svg">
  <defs>
    <linearGradient id="grad2" x1="0%" y1="0%" x2="100%" y2="100%">
      <stop offset="0%" style="stop-color:#8b5cf6;stop-opacity:0.8" />
      <stop offset="100%" style="stop-color:#06b6d4;stop-opacity:0.6" />
    </linearGradient>
  </defs>

  <rect width="100%" height="100%" fill="url(#grad2)"/>

  <!-- Kanban Board Layout -->
  <rect x="40" y="40" width="150" height="320" rx="8" fill="white" opacity="0.9"/>
  <rect x="210" y="40" width="150" height="320" rx="8" fill="white" opacity="0.9"/>
  <rect x="380" y="40" width="150" height="320" rx="8" fill="white" opacity="0.9"/>

  <!-- Column Headers -->
  <rect x="50" y="50" width="130" height="30" rx="4" fill="#8b5cf6" opacity="0.8"/>
  <rect x="220" y="50" width="130" height="30" rx="4" fill="#f59e0b" opacity="0.8"/>
  <rect x="390" y="50" width="130" height="30" rx="4" fill="#10b981" opacity="0.8"/>

  <!-- Task Cards -->
  <rect x="55" y="90" width="120" height="40" rx="4" fill="#f3f4f6"/>
  <rect x="55" y="140" width="120" height="40" rx="4" fill="#f3f4f6"/>
  <rect x="55" y="190" width="120" height="40" rx="4" fill="#f3f4f6"/>

  <rect x="225" y="90" width="120" height="40" rx="4" fill="#fef3c7"/>
  <rect x="225" y="140" width="120" height="40" rx="4" fill="#fef3c7"/>

  <rect x="395" y="90" width="120" height="40" rx="4" fill="#d1fae5"/>
  <rect x="395" y="140" width="120" height="40" rx="4" fill="#d1fae5"/>
  <rect x="395" y="190" width="120" height="40" rx="4" fill="#d1fae5"/>

  <text x="300" y="200" text-anchor="middle" fill="white" font-family="Arial, sans-serif" font-size="24" font-weight="bold">Task Management</text>
  <text x="300" y="230" text-anchor="middle" fill="white" font-family="Arial, sans-serif" font-size="14" opacity="0.9">Kanban Board & Collaboration</text>
</svg>